<?xml version="1.0" standalone="no"?><!DOCTYPE svg PUBLIC "-//W3C//DTD SVG 1.1//EN" "http://www.w3.org/Graphics/SVG/1.1/DTD/svg11.dtd"><svg t="1594222200788" class="icon" viewBox="0 0 1024 1024" version="1.1" xmlns="http://www.w3.org/2000/svg" p-id="7196" xmlns:xlink="http://www.w3.org/1999/xlink" width="200" height="200"><defs><style type="text/css"></style></defs><path d="M511.402 817.319c176.272 0 319.168-142.896 319.168-319.167 0-176.272-142.896-319.171-319.168-319.171-176.274 0-319.171 142.899-319.171 319.171 0 176.271 142.896 319.167 319.171 319.167l0 0zM410.158 482.152l136.829-154.438c8.096-9.131 21.225-9.131 29.32 0 8.099 9.152 8.099 23.946 0 33.086l-122.172 137.882 122.171 137.882c8.099 9.159 8.099 23.963 0 33.093-8.098 9.149-21.225 9.149-29.32 0l-136.828-154.42c-8.096-9.131-8.096-23.948 0-33.083l0 0zM410.158 482.152z" p-id="7197" fill="#1296db"></path></svg>