<?xml version="1.0" standalone="no"?><!DOCTYPE svg PUBLIC "-//W3C//DTD SVG 1.1//EN" "http://www.w3.org/Graphics/SVG/1.1/DTD/svg11.dtd"><svg t="1594300499752" class="icon" viewBox="0 0 1024 1024" version="1.1" xmlns="http://www.w3.org/2000/svg" p-id="615" xmlns:xlink="http://www.w3.org/1999/xlink" width="200" height="200"><defs><style type="text/css"></style></defs><path d="M512 960C759.42 960 960 759.43 960 512s-200.58-448-448-448-448 200.58-448 448S264.58 960 512 960z m-149-470.7c0.14-0.14 0.32-0.17 0.45-0.31L544 308.43a32 32 0 0 1 45.25 45.25L430.93 512 589.24 670.32A32 32 0 0 1 544 715.57L363.42 535c-0.13-0.12-0.31-0.17-0.45-0.29a32.24 32.24 0 0 1 0-45.41z" fill="#1296DB" p-id="616"></path></svg>